<mxfile host="app.diagrams.net" modified="2023-07-02T18:13:47.026Z" agent="Mozilla/5.0 (Windows NT 10.0; Win64; x64) AppleWebKit/537.36 (KHTML, like Gecko) Chrome/114.0.0.0 Safari/537.36 Edg/114.0.1823.58" etag="qUvocGTwpiJEoYYm5LV8" version="21.5.2" type="device">
  <diagram name="Page-1" id="2dhbECLWRLH1tQE8GDnK">
    <mxGraphModel dx="1114" dy="616" grid="1" gridSize="10" guides="1" tooltips="1" connect="1" arrows="1" fold="1" page="1" pageScale="1" pageWidth="850" pageHeight="1100" math="0" shadow="0">
      <root>
        <mxCell id="0" />
        <mxCell id="1" parent="0" />
        <mxCell id="OzQIe0mRv0SgeH8xm8h0-1" value="&amp;lt;Header&amp;gt;&lt;br&gt;*See Header_Small_Business_Website file for details" style="rounded=0;whiteSpace=wrap;html=1;" vertex="1" parent="1">
          <mxGeometry x="30" y="10" width="810" height="60" as="geometry" />
        </mxCell>
        <mxCell id="OzQIe0mRv0SgeH8xm8h0-2" value="&amp;lt;Footer&amp;gt;&lt;br&gt;*See Footer_Small_Business_Website file for details" style="rounded=0;whiteSpace=wrap;html=1;" vertex="1" parent="1">
          <mxGeometry x="10" y="520" width="830" height="60" as="geometry" />
        </mxCell>
        <mxCell id="OzQIe0mRv0SgeH8xm8h0-3" value="" style="swimlane;startSize=0;" vertex="1" parent="1">
          <mxGeometry x="30" y="90" width="800" height="410" as="geometry" />
        </mxCell>
        <mxCell id="OzQIe0mRv0SgeH8xm8h0-4" value="Section for Table" style="text;html=1;align=center;verticalAlign=middle;resizable=0;points=[];autosize=1;strokeColor=none;fillColor=none;" vertex="1" parent="OzQIe0mRv0SgeH8xm8h0-3">
          <mxGeometry x="55" width="110" height="30" as="geometry" />
        </mxCell>
        <mxCell id="OzQIe0mRv0SgeH8xm8h0-5" value="" style="swimlane;startSize=0;" vertex="1" parent="OzQIe0mRv0SgeH8xm8h0-3">
          <mxGeometry x="20" y="30" width="750" height="360" as="geometry" />
        </mxCell>
        <mxCell id="OzQIe0mRv0SgeH8xm8h0-23" value="Table Header" style="rounded=0;whiteSpace=wrap;html=1;" vertex="1" parent="OzQIe0mRv0SgeH8xm8h0-5">
          <mxGeometry x="35" y="20" width="690" height="30" as="geometry" />
        </mxCell>
        <mxCell id="OzQIe0mRv0SgeH8xm8h0-25" value="Position column" style="rounded=0;whiteSpace=wrap;html=1;verticalAlign=top;" vertex="1" parent="OzQIe0mRv0SgeH8xm8h0-5">
          <mxGeometry x="35" y="70" width="235" height="260" as="geometry" />
        </mxCell>
        <mxCell id="OzQIe0mRv0SgeH8xm8h0-27" value="Apply Col" style="rounded=0;whiteSpace=wrap;html=1;verticalAlign=top;" vertex="1" parent="OzQIe0mRv0SgeH8xm8h0-5">
          <mxGeometry x="640" y="70" width="80" height="260" as="geometry" />
        </mxCell>
        <mxCell id="OzQIe0mRv0SgeH8xm8h0-26" value="Description Column&amp;nbsp;" style="rounded=0;whiteSpace=wrap;html=1;verticalAlign=top;align=center;" vertex="1" parent="1">
          <mxGeometry x="330" y="190" width="350" height="260" as="geometry" />
        </mxCell>
      </root>
    </mxGraphModel>
  </diagram>
</mxfile>
